{
	"asset":{
		"generator":"Khronos glTF Blender I/O v4.5.48",
		"version":"2.0"
	},
	"scene":0,
	"scenes":[
		{
			"name":"Scene",
			"nodes":[
				1,
				2,
				3,
				4,
				5
			]
		}
	],
	"nodes":[
		{
			"name":"Curves"
		},
		{
			"children":[
				0
			],
			"mesh":0,
			"name":"Surface",
			"translation":[
				-7.418128967285156,
				-631.6600341796875,
				6.869060039520264
			]
		},
		{
			"mesh":1,
			"name":"colorful-aurora-borealis-transparent-set",
			"rotation":[
				-0.7134653925895691,
				-0.11886076629161835,
				-0.44212546944618225,
				0.5304378271102905
			],
			"scale":[
				399.8748779296875,
				399.8748779296875,
				399.8748779296875
			],
			"translation":[
				-3.4907004833221436,
				-101.01480865478516,
				-1.1238096952438354
			]
		},
		{
			"mesh":2,
			"name":"colorful-aurora-borealis-transparent-set.001",
			"rotation":[
				0,
				1,
				0,
				0
			],
			"scale":[
				399.8748474121094,
				399.8748474121094,
				399.8748474121094
			],
			"translation":[
				88.26110076904297,
				-172.97503662109375,
				9.975836753845215
			]
		},
		{
			"mesh":3,
			"name":"colorful-aurora-borealis-transparent-set.002",
			"rotation":[
				0.5297389626502991,
				-0.3535541892051697,
				0.6894180178642273,
				0.3450782895088196
			],
			"scale":[
				399.87481689453125,
				399.8748779296875,
				399.8748779296875
			],
			"translation":[
				-3.4907004833221436,
				-101.01480865478516,
				-1.1238096952438354
			]
		},
		{
			"mesh":4,
			"name":"colorful-aurora-borealis-transparent-set.003",
			"rotation":[
				0,
				1,
				0,
				0
			],
			"scale":[
				399.8748474121094,
				399.8748474121094,
				399.8748474121094
			],
			"translation":[
				-3.4907004833221436,
				-49.70634078979492,
				-1.1238096952438354
			]
		}
	],
	"materials":[
		{
			"doubleSided":true,
			"name":"Material.001",
			"pbrMetallicRoughness":{
				"baseColorTexture":{
					"index":0
				},
				"metallicFactor":0,
				"metallicRoughnessTexture":{
					"index":1
				}
			}
		},
		{
			"alphaMode":"BLEND",
			"doubleSided":true,
			"name":"colorful-aurora-borealis-transparent-set",
			"pbrMetallicRoughness":{
				"baseColorTexture":{
					"index":2
				},
				"metallicFactor":0,
				"roughnessFactor":0.5
			}
		},
		{
			"alphaMode":"BLEND",
			"doubleSided":true,
			"name":"colorful-aurora-borealis-transparent-set.001",
			"pbrMetallicRoughness":{
				"baseColorTexture":{
					"index":3
				},
				"metallicFactor":0,
				"roughnessFactor":0.5
			}
		},
		{
			"alphaMode":"BLEND",
			"doubleSided":true,
			"name":"colorful-aurora-borealis-transparent-set.002",
			"pbrMetallicRoughness":{
				"baseColorTexture":{
					"index":4
				},
				"metallicFactor":0,
				"roughnessFactor":0.5
			}
		},
		{
			"alphaMode":"BLEND",
			"doubleSided":true,
			"name":"colorful-aurora-borealis-transparent-set.003",
			"pbrMetallicRoughness":{
				"baseColorTexture":{
					"index":5
				},
				"metallicFactor":0,
				"roughnessFactor":0.5
			}
		}
	],
	"meshes":[
		{
			"name":"Sphere",
			"primitives":[
				{
					"attributes":{
						"POSITION":0,
						"NORMAL":1,
						"TEXCOORD_0":2
					},
					"indices":3,
					"material":0
				}
			]
		},
		{
			"name":"colorful-aurora-borealis-transparent-set.001",
			"primitives":[
				{
					"attributes":{
						"POSITION":4,
						"NORMAL":5,
						"TEXCOORD_0":6
					},
					"indices":7,
					"material":1
				}
			]
		},
		{
			"name":"colorful-aurora-borealis-transparent-set.002",
			"primitives":[
				{
					"attributes":{
						"POSITION":8,
						"NORMAL":9,
						"TEXCOORD_0":10
					},
					"indices":7,
					"material":2
				}
			]
		},
		{
			"name":"colorful-aurora-borealis-transparent-set.003",
			"primitives":[
				{
					"attributes":{
						"POSITION":11,
						"NORMAL":12,
						"TEXCOORD_0":13
					},
					"indices":7,
					"material":3
				}
			]
		},
		{
			"name":"colorful-aurora-borealis-transparent-set.004",
			"primitives":[
				{
					"attributes":{
						"POSITION":14,
						"NORMAL":15,
						"TEXCOORD_0":16
					},
					"indices":7,
					"material":4
				}
			]
		}
	],
	"textures":[
		{
			"sampler":0,
			"source":0
		},
		{
			"sampler":0,
			"source":1
		},
		{
			"sampler":1,
			"source":2
		},
		{
			"sampler":1,
			"source":2
		},
		{
			"sampler":1,
			"source":2
		},
		{
			"sampler":1,
			"source":2
		}
	],
	"images":[
		{
			"mimeType":"image/png",
			"name":"earth_color_10K",
			"uri":"earth_color_10K.png"
		},
		{
			"mimeType":"image/png",
			"name":"earth_landocean_16K",
			"uri":"earth_landocean_16K.png"
		},
		{
			"mimeType":"image/png",
			"name":"colorful-aurora-borealis-transparent-set",
			"uri":"colorful-aurora-borealis-transparent-set.png"
		}
	],
	"accessors":[
		{
			"bufferView":0,
			"componentType":5126,
			"count":151,
			"max":[
				637,
				637,
				637
			],
			"min":[
				-636.9999389648438,
				-637,
				-637
			],
			"type":"VEC3"
		},
		{
			"bufferView":1,
			"componentType":5126,
			"count":151,
			"type":"VEC3"
		},
		{
			"bufferView":2,
			"componentType":5126,
			"count":151,
			"type":"VEC2"
		},
		{
			"bufferView":3,
			"componentType":5123,
			"count":672,
			"type":"SCALAR"
		},
		{
			"bufferView":4,
			"componentType":5126,
			"count":4,
			"max":[
				0.5,
				0.4996861517429352,
				0.01771324872970581
			],
			"min":[
				-0.5,
				-0.4996861517429352,
				-0.01771324872970581
			],
			"type":"VEC3"
		},
		{
			"bufferView":5,
			"componentType":5126,
			"count":4,
			"type":"VEC3"
		},
		{
			"bufferView":6,
			"componentType":5126,
			"count":4,
			"type":"VEC2"
		},
		{
			"bufferView":7,
			"componentType":5123,
			"count":6,
			"type":"SCALAR"
		},
		{
			"bufferView":8,
			"componentType":5126,
			"count":4,
			"max":[
				0.5,
				0.4996861517429352,
				0.01771324872970581
			],
			"min":[
				-0.5,
				-0.4996861517429352,
				-0.01771324872970581
			],
			"type":"VEC3"
		},
		{
			"bufferView":9,
			"componentType":5126,
			"count":4,
			"type":"VEC3"
		},
		{
			"bufferView":10,
			"componentType":5126,
			"count":4,
			"type":"VEC2"
		},
		{
			"bufferView":11,
			"componentType":5126,
			"count":4,
			"max":[
				0.5,
				0.4996861517429352,
				0.01771324872970581
			],
			"min":[
				-0.5,
				-0.4996861517429352,
				-0.01771324872970581
			],
			"type":"VEC3"
		},
		{
			"bufferView":12,
			"componentType":5126,
			"count":4,
			"type":"VEC3"
		},
		{
			"bufferView":13,
			"componentType":5126,
			"count":4,
			"type":"VEC2"
		},
		{
			"bufferView":14,
			"componentType":5126,
			"count":4,
			"max":[
				0.5,
				0.4996861517429352,
				0.01771324872970581
			],
			"min":[
				-0.5,
				-0.4996861517429352,
				-0.01771324872970581
			],
			"type":"VEC3"
		},
		{
			"bufferView":15,
			"componentType":5126,
			"count":4,
			"type":"VEC3"
		},
		{
			"bufferView":16,
			"componentType":5126,
			"count":4,
			"type":"VEC2"
		}
	],
	"bufferViews":[
		{
			"buffer":0,
			"byteLength":1812,
			"byteOffset":0,
			"target":34962
		},
		{
			"buffer":0,
			"byteLength":1812,
			"byteOffset":1812,
			"target":34962
		},
		{
			"buffer":0,
			"byteLength":1208,
			"byteOffset":3624,
			"target":34962
		},
		{
			"buffer":0,
			"byteLength":1344,
			"byteOffset":4832,
			"target":34963
		},
		{
			"buffer":0,
			"byteLength":48,
			"byteOffset":6176,
			"target":34962
		},
		{
			"buffer":0,
			"byteLength":48,
			"byteOffset":6224,
			"target":34962
		},
		{
			"buffer":0,
			"byteLength":32,
			"byteOffset":6272,
			"target":34962
		},
		{
			"buffer":0,
			"byteLength":12,
			"byteOffset":6304,
			"target":34963
		},
		{
			"buffer":0,
			"byteLength":48,
			"byteOffset":6316,
			"target":34962
		},
		{
			"buffer":0,
			"byteLength":48,
			"byteOffset":6364,
			"target":34962
		},
		{
			"buffer":0,
			"byteLength":32,
			"byteOffset":6412,
			"target":34962
		},
		{
			"buffer":0,
			"byteLength":48,
			"byteOffset":6444,
			"target":34962
		},
		{
			"buffer":0,
			"byteLength":48,
			"byteOffset":6492,
			"target":34962
		},
		{
			"buffer":0,
			"byteLength":32,
			"byteOffset":6540,
			"target":34962
		},
		{
			"buffer":0,
			"byteLength":48,
			"byteOffset":6572,
			"target":34962
		},
		{
			"buffer":0,
			"byteLength":48,
			"byteOffset":6620,
			"target":34962
		},
		{
			"buffer":0,
			"byteLength":32,
			"byteOffset":6668,
			"target":34962
		}
	],
	"samplers":[
		{
			"magFilter":9729,
			"minFilter":9987
		},
		{
			"magFilter":9729,
			"minFilter":9987,
			"wrapS":33071,
			"wrapT":33071
		}
	],
	"buffers":[
		{
			"byteLength":6700,
			"uri":"Earghtt.bin"
		}
	]
}
