{
	"asset":{
		"generator":"Khronos glTF Blender I/O v4.5.47",
		"version":"2.0"
	},
	"extensionsUsed":[
		"KHR_texture_transform"
	],
	"extensionsRequired":[
		"KHR_texture_transform"
	],
	"scene":0,
	"scenes":[
		{
			"name":"Scene",
			"nodes":[
				0
			]
		}
	],
	"nodes":[
		{
			"mesh":0,
			"name":"Icosphere",
			"rotation":[
				-0.23027029633522034,
				-0.2774963974952698,
				-0.5956225395202637,
				0.7177779078483582
			],
			"scale":[
				3.1798462867736816,
				2.853912353515625,
				2.5805463790893555
			]
		}
	],
	"materials":[
		{
			"doubleSided":true,
			"name":"Material.001",
			"pbrMetallicRoughness":{
				"baseColorTexture":{
					"extensions":{
						"KHR_texture_transform":{
							"offset":[
								0,
								0.5
							],
							"scale":[
								0.5,
								0.5
							]
						}
					},
					"index":0
				},
				"metallicFactor":0,
				"roughnessFactor":0.6600000262260437
			}
		}
	],
	"meshes":[
		{
			"name":"Icosphere",
			"primitives":[
				{
					"attributes":{
						"POSITION":0,
						"NORMAL":1,
						"TEXCOORD_0":2
					},
					"indices":3,
					"material":0
				}
			]
		}
	],
	"textures":[
		{
			"sampler":0,
			"source":0
		}
	],
	"images":[
		{
			"mimeType":"image/jpeg",
			"name":"rock_05_diff_4k",
			"uri":"rock_05_diff_4k.jpg"
		}
	],
	"accessors":[
		{
			"bufferView":0,
			"componentType":5126,
			"count":7546,
			"max":[
				1.7331092357635498,
				1.8508528470993042,
				2.2679762840270996
			],
			"min":[
				-1.8375182151794434,
				-1.7126355171203613,
				-1.6677440404891968
			],
			"type":"VEC3"
		},
		{
			"bufferView":1,
			"componentType":5126,
			"count":7546,
			"type":"VEC3"
		},
		{
			"bufferView":2,
			"componentType":5126,
			"count":7546,
			"type":"VEC2"
		},
		{
			"bufferView":3,
			"componentType":5123,
			"count":45264,
			"type":"SCALAR"
		}
	],
	"bufferViews":[
		{
			"buffer":0,
			"byteLength":90552,
			"byteOffset":0,
			"target":34962
		},
		{
			"buffer":0,
			"byteLength":90552,
			"byteOffset":90552,
			"target":34962
		},
		{
			"buffer":0,
			"byteLength":60368,
			"byteOffset":181104,
			"target":34962
		},
		{
			"buffer":0,
			"byteLength":90528,
			"byteOffset":241472,
			"target":34963
		}
	],
	"samplers":[
		{
			"magFilter":9729,
			"minFilter":9987
		}
	],
	"buffers":[
		{
			"byteLength":332000,
			"uri":"asteroid3.bin"
		}
	]
}
