{
	"asset":{
		"generator":"Khronos glTF Blender I/O v4.5.48",
		"version":"2.0"
	},
	"scene":0,
	"scenes":[
		{
			"name":"Scene",
			"nodes":[
				0
			]
		}
	],
	"nodes":[
		{
			"mesh":0,
			"name":"Sphere",
			"scale":[
				-9.753448486328125,
				-9.753448486328125,
				-9.753448486328125
			],
			"translation":[
				-1.283071517944336,
				-0.7120928764343262,
				0.7648305892944336
			]
		}
	],
	"materials":[
		{
			"doubleSided":true,
			"name":"Material.005",
			"pbrMetallicRoughness":{
				"baseColorTexture":{
					"index":0
				},
				"metallicFactor":0,
				"roughnessFactor":0.5
			}
		}
	],
	"meshes":[
		{
			"name":"Sphere",
			"primitives":[
				{
					"attributes":{
						"POSITION":0,
						"NORMAL":1,
						"TEXCOORD_0":2
					},
					"indices":3,
					"material":0
				}
			]
		}
	],
	"textures":[
		{
			"sampler":0,
			"source":0
		}
	],
	"images":[
		{
			"mimeType":"image/jpeg",
			"name":"Solarsystemscope_texture_2k_sun",
			"uri":"Solarsystemscope_texture_2k_sun.jpg"
		}
	],
	"accessors":[
		{
			"bufferView":0,
			"componentType":5126,
			"count":563,
			"max":[
				0.9999997019767761,
				1,
				0.9999993443489075
			],
			"min":[
				-0.9999990463256836,
				-1,
				-1
			],
			"type":"VEC3"
		},
		{
			"bufferView":1,
			"componentType":5126,
			"count":563,
			"type":"VEC3"
		},
		{
			"bufferView":2,
			"componentType":5126,
			"count":563,
			"type":"VEC2"
		},
		{
			"bufferView":3,
			"componentType":5123,
			"count":2886,
			"type":"SCALAR"
		}
	],
	"bufferViews":[
		{
			"buffer":0,
			"byteLength":6756,
			"byteOffset":0,
			"target":34962
		},
		{
			"buffer":0,
			"byteLength":6756,
			"byteOffset":6756,
			"target":34962
		},
		{
			"buffer":0,
			"byteLength":4504,
			"byteOffset":13512,
			"target":34962
		},
		{
			"buffer":0,
			"byteLength":5772,
			"byteOffset":18016,
			"target":34963
		}
	],
	"samplers":[
		{
			"magFilter":9729,
			"minFilter":9987
		}
	],
	"buffers":[
		{
			"byteLength":23788,
			"uri":"matahari%5B1%5D.bin"
		}
	]
}
